<?xml version="1.0" encoding="UTF-8"?>
<svg xmlns="http://www.w3.org/2000/svg" xmlns:xlink="http://www.w3.org/1999/xlink" width="32pt" height="32pt" viewBox="0 0 32 32" version="1.1">
<g id="surface1">
<path style="fill:none;stroke-width:2.999;stroke-linecap:round;stroke-linejoin:round;stroke:rgb(20%,20%,20%);stroke-opacity:1;stroke-miterlimit:4;" d="M 1669.76697 -190.071567 C 1666.279509 -190.071567 1663.455707 -186.610133 1663.455707 -182.341898 C 1663.455707 -178.086675 1666.019251 -175.15877 1669.76697 -174.625241 L 1716.678519 -164.319014 L 1758.814328 -188.041553 " transform="matrix(0.300183,0,0,0.300183,-497.656887,77.388211)"/>
<path style="fill:none;stroke-width:2.999;stroke-linecap:round;stroke-linejoin:round;stroke:rgb(20%,20%,20%);stroke-opacity:1;stroke-miterlimit:4;" d="M 1669.76697 -205.517894 C 1666.279509 -205.517894 1663.455707 -202.05646 1663.455707 -197.801237 C 1663.455707 -193.533002 1666.019251 -190.605097 1669.76697 -190.071567 L 1716.678519 -179.765341 L 1758.814328 -203.48788 " transform="matrix(0.300183,0,0,0.300183,-497.656887,77.388211)"/>
<path style="fill:none;stroke-width:2.999;stroke-linecap:round;stroke-linejoin:round;stroke:rgb(20%,20%,20%);stroke-opacity:1;stroke-miterlimit:4;" d="M 1669.76697 -220.964221 C 1666.279509 -220.964221 1663.455707 -217.515799 1663.455707 -213.247564 C 1663.455707 -208.979329 1666.019251 -206.051424 1669.76697 -205.517894 L 1692.64367 -200.49491 M 1706.346266 -197.488927 L 1716.678519 -195.211668 L 1758.814328 -218.934207 " transform="matrix(0.300183,0,0,0.300183,-497.656887,77.388211)"/>
<path style="fill-rule:nonzero;fill:rgb(20%,20%,20%);fill-opacity:1;stroke-width:11.334804;stroke-linecap:round;stroke-linejoin:round;stroke:rgb(20%,20%,20%);stroke-opacity:1;stroke-miterlimit:4;" d="M 6470.232999 -924.800365 L 6306.651468 -835.140374 L 6488.233852 -796.187706 L 6647.487309 -885.847697 Z M 6470.232999 -924.800365 " transform="matrix(0.0794233,0,0,0.0794233,-497.656887,77.388211)"/>
<path style="fill-rule:nonzero;fill:rgb(94.901961%,61.568627%,8.627451%);fill-opacity:1;stroke-width:1.115347;stroke-linecap:round;stroke-linejoin:round;stroke:rgb(20%,20%,20%);stroke-opacity:1;stroke-miterlimit:4;" d="M 1715.142995 -235.603747 L 1704.277213 -229.461653 L 1721.727528 -225.622844 L 1732.59331 -231.777951 Z M 1715.142995 -235.603747 " transform="matrix(0.300183,0,0,0.300183,-497.656887,77.388211)"/>
<path style=" stroke:none;fill-rule:evenodd;fill:rgb(95.686275%,62.352941%,8.627451%);fill-opacity:1;" d="M 11.53125 14.816406 L 11.53125 19.523438 L 12.582031 18.871094 L 13.746094 20.148438 L 13.746094 15.183594 Z M 11.53125 14.816406 "/>
</g>
</svg>
